<svg xmlns="http://www.w3.org/2000/svg" width="1200" height="420" viewBox="0 0 1200 420" role="img" aria-labelledby="title description">
  <title id="title">Blinkenlights</title>
  <desc id="description">A ticket for Caps Lock LED notifications in Pi on macOS.</desc>
  <defs>
    <pattern id="paper" width="24" height="24" patternUnits="userSpaceOnUse">
      <circle cx="4" cy="7" r="0.6" fill="#263249" opacity="0.035"/>
      <circle cx="18" cy="16" r="0.5" fill="#68799d" opacity="0.03"/>
    </pattern>
    <radialGradient id="lamp">
      <stop offset="0" stop-color="#fffbe3"/>
      <stop offset="0.4" stop-color="#e5cf62"/>
      <stop offset="1" stop-color="#a58d2b"/>
    </radialGradient>
  </defs>

  <rect width="1200" height="420" fill="#d9d0c2"/>
  <rect x="22" y="18" width="1156" height="384" rx="8" fill="#f1e9d9" stroke="#263249" stroke-width="2"/>
  <rect x="22" y="18" width="1156" height="384" rx="8" fill="url(#paper)"/>

  <path d="M814 36V384" stroke="#8d8b84" stroke-width="1.5" stroke-dasharray="6 8"/>
  <circle cx="814" cy="28" r="4" fill="#d9d0c2" stroke="#8d8b84"/>
  <circle cx="814" cy="392" r="4" fill="#d9d0c2" stroke="#8d8b84"/>

  <g transform="translate(62 0)">
    <text x="0" y="62" fill="#626875" font-family="ui-monospace, SFMono-Regular, Menlo, monospace" font-size="12" letter-spacing="1.7">PI EXTENSION · CAPS LOCK LED · HID USAGE 08/02</text>
    <text x="707" y="62" fill="#626875" font-family="ui-monospace, SFMono-Regular, Menlo, monospace" font-size="11" text-anchor="end">BLNK–0001</text>
    <path d="M0 82H707" stroke="#b9afa1"/>

    <text x="-2" y="190" fill="#263249" font-family="Baskerville, Iowan Old Style, Georgia, serif" font-size="86" font-style="italic" letter-spacing="-3">Blinkenlights</text>
    <text x="2" y="231" fill="#68799d" font-family="Baskerville, Iowan Old Style, Georgia, serif" font-size="24">Caps Lock LED notifications for Pi.</text>

    <g transform="translate(2 278)">
      <path d="M0 37H62V5H126V37H183V5H247V37H342V5H406V37H660" fill="none" stroke="#ded4c4" stroke-width="10"/>
      <path d="M0 37H62V5H126V37H183V5H247V37H342V5H406V37H660" fill="none" stroke="#b85c4b" stroke-width="3"/>
      <circle cx="406" cy="5" r="5" fill="#68799d"/>
    </g>

    <g font-family="ui-monospace, SFMono-Regular, Menlo, monospace" font-size="11" letter-spacing="1">
      <text x="2" y="365" fill="#6d6c70">AGENT SETTLES</text>
      <text x="169" y="365" fill="#b85c4b">→ LED BLINKS</text>
      <text x="339" y="365" fill="#6d6c70">→ FOCUS TO DISMISS</text>
    </g>
  </g>

  <g transform="translate(846 0)">
    <text x="0" y="62" fill="#626875" font-family="ui-monospace, SFMono-Regular, Menlo, monospace" font-size="11" letter-spacing="1.5">NOTIFICATION STUB</text>
    <text x="290" y="62" fill="#b85c4b" font-family="ui-monospace, SFMono-Regular, Menlo, monospace" font-size="11" text-anchor="end">BLNK / STUB 01</text>

    <g transform="translate(7 94)">
      <rect width="276" height="232" rx="5" fill="#d9dde5" stroke="#263249" stroke-width="2"/>
      <rect x="14" y="14" width="248" height="204" rx="3" fill="#e9e8e1" stroke="#a6a9ae"/>
      <circle cx="224" cy="43" r="7" fill="url(#lamp)" stroke="#8d7928"/>
      <text x="42" y="108" fill="#263249" font-family="Baskerville, Iowan Old Style, Georgia, serif" font-size="35">caps lock</text>
      <path d="M42 133H234" stroke="#a6a9ae"/>
      <text x="42" y="170" fill="#626875" font-family="ui-monospace, SFMono-Regular, Menlo, monospace" font-size="11" letter-spacing="1.4">LED OUTPUT ONLY</text>
      <text x="42" y="198" fill="#b85c4b" font-family="ui-monospace, SFMono-Regular, Menlo, monospace" font-size="11" letter-spacing="1.4">CAPS STATE UNCHANGED</text>
    </g>

    <text x="0" y="365" fill="#6d6c70" font-family="ui-monospace, SFMono-Regular, Menlo, monospace" font-size="10" letter-spacing="1">ONE SIGNAL · LOCAL ONLY</text>
    <text x="290" y="365" fill="#6d6c70" font-family="ui-monospace, SFMono-Regular, Menlo, monospace" font-size="10" text-anchor="end">08 / 02</text>
  </g>

  <circle cx="22" cy="210" r="18" fill="#d9d0c2"/>
  <circle cx="1178" cy="210" r="18" fill="#d9d0c2"/>
</svg>
