<svg xmlns="http://www.w3.org/2000/svg" width="1200" height="420" viewBox="0 0 1200 420" role="img" aria-labelledby="title description">
  <title id="title">Blinkenlights</title>
  <desc id="description">Caps Lock LED notifications for Pi on macOS.</desc>
  <defs>
    <pattern id="paper" width="24" height="24" patternUnits="userSpaceOnUse">
      <circle cx="4" cy="7" r="0.6" fill="#252329" opacity="0.035"/>
      <circle cx="18" cy="16" r="0.5" fill="#6f79a8" opacity="0.03"/>
    </pattern>
    <radialGradient id="lamp">
      <stop offset="0" stop-color="#fffbe0"/>
      <stop offset="0.4" stop-color="#e5cf62"/>
      <stop offset="1" stop-color="#a58d2b"/>
    </radialGradient>
  </defs>

  <rect width="1200" height="420" fill="#e4ddd4"/>
  <rect x="12" y="12" width="1176" height="396" fill="#f4efe7" stroke="#252329" stroke-width="2"/>
  <rect x="12" y="12" width="1176" height="396" fill="url(#paper)"/>

  <g transform="translate(58 0)">
    <text x="0" y="62" fill="#6f6a72" font-family="ui-monospace, SFMono-Regular, Menlo, monospace" font-size="12" letter-spacing="2">PI EXTENSION · macOS · HID 08:02</text>
    <path d="M0 82H675" stroke="#b7b0a8"/>

    <text x="-2" y="190" fill="#252329" font-family="Georgia, Times New Roman, serif" font-size="86" font-style="italic" letter-spacing="-3">Blinkenlights</text>
    <text x="2" y="231" fill="#6f79a8" font-family="Georgia, Times New Roman, serif" font-size="24">Caps Lock LED notifications for Pi.</text>

    <g transform="translate(2 278)">
      <path d="M0 37H62V5H126V37H183V5H247V37H342V5H406V37H660" fill="none" stroke="#ddd5cc" stroke-width="10"/>
      <path d="M0 37H62V5H126V37H183V5H247V37H342V5H406V37H660" fill="none" stroke="#cf7562" stroke-width="3"/>
      <circle cx="406" cy="5" r="5" fill="#6f79a8"/>
    </g>

    <g font-family="ui-monospace, SFMono-Regular, Menlo, monospace" font-size="11" letter-spacing="1">
      <text x="2" y="365" fill="#77727a">AGENT SETTLES</text>
      <text x="169" y="365" fill="#cf7562">→ LED BLINKS</text>
      <text x="339" y="365" fill="#77727a">→ FOCUS TO DISMISS</text>
    </g>
  </g>

  <g transform="translate(842 80)">
    <rect width="276" height="260" rx="5" fill="#ddd9e8" stroke="#252329" stroke-width="2"/>
    <rect x="14" y="14" width="248" height="232" rx="3" fill="#ebe8f1" stroke="#aaa5b2"/>
    <circle cx="224" cy="47" r="7" fill="url(#lamp)" stroke="#8d7928"/>
    <text x="42" y="119" fill="#252329" font-family="Georgia, Times New Roman, serif" font-size="35">caps lock</text>
    <path d="M42 144H234" stroke="#aaa5b2"/>
    <text x="42" y="181" fill="#6f6a72" font-family="ui-monospace, SFMono-Regular, Menlo, monospace" font-size="11" letter-spacing="1.4">LED OUTPUT ONLY</text>
    <text x="42" y="211" fill="#cf7562" font-family="ui-monospace, SFMono-Regular, Menlo, monospace" font-size="11" letter-spacing="1.4">CAPS STATE UNCHANGED</text>
  </g>
</svg>
