<svg xmlns="http://www.w3.org/2000/svg" width="1200" height="420" viewBox="0 0 1200 420" role="img" aria-labelledby="title description">
  <title id="title">Blinkenlights</title>
  <desc id="description">A ticket for Caps Lock LED notifications in Pi on macOS.</desc>
  <defs>
    <pattern id="paper" width="24" height="24" patternUnits="userSpaceOnUse">
      <circle cx="4" cy="7" r="0.6" fill="#252329" opacity="0.035"/>
      <circle cx="18" cy="16" r="0.5" fill="#6f79a8" opacity="0.03"/>
    </pattern>
    <radialGradient id="lamp">
      <stop offset="0" stop-color="#fffbe0"/>
      <stop offset="0.4" stop-color="#e5cf62"/>
      <stop offset="1" stop-color="#a58d2b"/>
    </radialGradient>
  </defs>

  <rect width="1200" height="420" fill="#dfd7cd"/>
  <rect x="22" y="18" width="1156" height="384" rx="8" fill="#f4efe7" stroke="#252329" stroke-width="2"/>
  <rect x="22" y="18" width="1156" height="384" rx="8" fill="url(#paper)"/>

  <path d="M814 36V384" stroke="#8d8890" stroke-width="1.5" stroke-dasharray="6 8"/>
  <circle cx="814" cy="28" r="4" fill="#dfd7cd" stroke="#8d8890"/>
  <circle cx="814" cy="392" r="4" fill="#dfd7cd" stroke="#8d8890"/>

  <g transform="translate(62 0)">
    <text x="0" y="62" fill="#6f6a72" font-family="ui-monospace, SFMono-Regular, Menlo, monospace" font-size="12" letter-spacing="2">PI EXTENSION · macOS · HID 08:02</text>
    <text x="707" y="62" fill="#6f6a72" font-family="ui-monospace, SFMono-Regular, Menlo, monospace" font-size="11" text-anchor="end">BLNK–0001</text>
    <path d="M0 82H707" stroke="#b7b0a8"/>

    <text x="-2" y="190" fill="#252329" font-family="Georgia, Times New Roman, serif" font-size="86" font-style="italic" letter-spacing="-3">Blinkenlights</text>
    <text x="2" y="231" fill="#6f79a8" font-family="Georgia, Times New Roman, serif" font-size="24">Caps Lock LED notifications for Pi.</text>

    <g transform="translate(2 278)">
      <path d="M0 37H62V5H126V37H183V5H247V37H342V5H406V37H660" fill="none" stroke="#ddd5cc" stroke-width="10"/>
      <path d="M0 37H62V5H126V37H183V5H247V37H342V5H406V37H660" fill="none" stroke="#cf7562" stroke-width="3"/>
      <circle cx="406" cy="5" r="5" fill="#6f79a8"/>
    </g>

    <g font-family="ui-monospace, SFMono-Regular, Menlo, monospace" font-size="11" letter-spacing="1">
      <text x="2" y="365" fill="#77727a">AGENT SETTLES</text>
      <text x="169" y="365" fill="#cf7562">→ LED BLINKS</text>
      <text x="339" y="365" fill="#77727a">→ FOCUS TO DISMISS</text>
    </g>
  </g>

  <g transform="translate(846 0)">
    <text x="0" y="62" fill="#6f6a72" font-family="ui-monospace, SFMono-Regular, Menlo, monospace" font-size="11" letter-spacing="1.5">NOTIFICATION STUB</text>
    <text x="290" y="62" fill="#cf7562" font-family="ui-monospace, SFMono-Regular, Menlo, monospace" font-size="11" text-anchor="end">KEEP THIS END</text>

    <g transform="translate(7 94)">
      <rect width="276" height="232" rx="5" fill="#ddd9e8" stroke="#252329" stroke-width="2"/>
      <rect x="14" y="14" width="248" height="204" rx="3" fill="#ebe8f1" stroke="#aaa5b2"/>
      <circle cx="224" cy="43" r="7" fill="url(#lamp)" stroke="#8d7928"/>
      <text x="42" y="108" fill="#252329" font-family="Georgia, Times New Roman, serif" font-size="35">caps lock</text>
      <path d="M42 133H234" stroke="#aaa5b2"/>
      <text x="42" y="170" fill="#6f6a72" font-family="ui-monospace, SFMono-Regular, Menlo, monospace" font-size="11" letter-spacing="1.4">LED OUTPUT ONLY</text>
      <text x="42" y="198" fill="#cf7562" font-family="ui-monospace, SFMono-Regular, Menlo, monospace" font-size="11" letter-spacing="1.4">CAPS STATE UNCHANGED</text>
    </g>

    <text x="0" y="365" fill="#77727a" font-family="ui-monospace, SFMono-Regular, Menlo, monospace" font-size="10" letter-spacing="1">ONE SIGNAL · LOCAL ONLY</text>
    <text x="290" y="365" fill="#77727a" font-family="ui-monospace, SFMono-Regular, Menlo, monospace" font-size="10" text-anchor="end">08 / 02</text>
  </g>

  <circle cx="22" cy="210" r="18" fill="#dfd7cd"/>
  <circle cx="1178" cy="210" r="18" fill="#dfd7cd"/>
</svg>
